<?xml version="1.0" encoding="UTF-8"?>
<svg id="Layer_1" data-name="Layer 1" xmlns="http://www.w3.org/2000/svg" version="1.1" viewBox="0 0 32 32">
  <defs>
    <style>
      .cls-1 {
        fill: #00005b;
      }

      .cls-1, .cls-2 {
        stroke-width: 0px;
      }

      .cls-2 {
        fill: #99f;
      }
    </style>
  </defs>
  <rect class="cls-1" width="32" height="32"/>
  <path class="cls-2" d="M13.1,19.5h-5l-1,3.1c0,.1-.1.2-.3.2h-2.5c-.1,0-.2,0-.1-.2l4.3-12.3c0-.1,0-.3.1-.4,0-.3,0-.6,0-.9,0,0,0-.1.1-.1h3.5c0,0,.2,0,.2.1l4.9,13.6c0,.1,0,.2-.1.2h-2.8c0,0-.2,0-.2-.1l-1.1-3.2h0ZM9,16.9h3.4c0-.3-.2-.6-.3-1-.1-.4-.2-.7-.4-1.1-.1-.4-.3-.8-.4-1.2s-.3-.8-.4-1.2c-.1-.4-.2-.7-.3-1h0c-.1.6-.3,1.1-.5,1.7-.2.6-.4,1.3-.6,2-.2.7-.4,1.3-.6,1.9M25.2,18.3h-4.2c0,.4.2.8.4,1.2.2.4.6.6,1,.8.5.2,1.1.3,1.7.3.5,0,.9,0,1.4-.1.4,0,.8-.2,1.2-.3,0,0,.1,0,.1.1v2c0,0,0,.1,0,.2,0,0,0,0,0,0-.4.2-.9.3-1.3.4-.6.1-1.3.2-1.9.2-1,0-1.9-.2-2.6-.5-.7-.3-1.2-.7-1.7-1.3-.4-.5-.7-1.1-.9-1.7-.2-.6-.3-1.3-.3-1.9s.1-1.4.3-2.1c.2-.7.6-1.3,1-1.8.4-.5,1-1,1.6-1.3.6-.3,1.4-.4,2.2-.4.7,0,1.4.1,2.1.4.5.2,1,.6,1.4,1.1.3.5.6,1,.8,1.5.2.5.3,1.1.3,1.6s0,.6,0,.9c0,.3,0,.4,0,.6,0,0,0,.2-.2.2s-.2,0-.4,0c-.2,0-.5,0-.8,0s-.6,0-1,0M21,16.4h2.8c.3,0,.6,0,.8,0,.1,0,.2,0,.3-.1h0c0-.3,0-.5,0-.6-.2-.7-.9-1.3-1.7-1.2-.7,0-1.4.4-1.8,1-.2.3-.3.6-.3,1"/>
</svg>